<svg width="20" height="18" viewBox="0 0 20 18" fill="none" xmlns="http://www.w3.org/2000/svg">
<path d="M16.3916 1.72799C16.3865 1.71562 16.378 1.70593 16.3677 1.70065C15.1764 1.01739 13.9192 0.530177 12.6275 0.251195C12.6158 0.248468 12.6037 0.250435 12.5929 0.256817C12.5821 0.263199 12.5732 0.27367 12.5674 0.286742C12.3962 0.675136 12.2408 1.07408 12.1018 1.48206C10.7095 1.21787 9.2933 1.21787 7.901 1.48206C7.76106 1.07305 7.60316 0.674001 7.42803 0.286742C7.42203 0.273954 7.41308 0.263724 7.40236 0.257384C7.39163 0.251044 7.37963 0.248887 7.36791 0.251195C6.07615 0.529591 4.81885 1.01684 3.62766 1.70069C3.61746 1.70609 3.60886 1.71532 3.60303 1.72709C1.22087 6.17389 0.568312 10.5114 0.888437 14.7951C0.889338 14.8056 0.891918 14.8158 0.896025 14.825C0.900132 14.8342 0.905681 14.8423 0.912343 14.8488C2.29945 16.1326 3.85095 17.1126 5.50063 17.7468C5.51224 17.7512 5.52465 17.751 5.53618 17.7463C5.5477 17.7416 5.55779 17.7325 5.5651 17.7204C5.91941 17.1178 6.23336 16.4797 6.50375 15.8125C6.50747 15.8034 6.50959 15.7933 6.50998 15.7831C6.51036 15.7728 6.50901 15.7626 6.506 15.753C6.50299 15.7435 6.4984 15.7348 6.49252 15.7277C6.48665 15.7205 6.47962 15.715 6.47191 15.7114C5.97683 15.4747 5.49754 15.1892 5.03853 14.8578C5.0302 14.8517 5.02319 14.8431 5.01814 14.8328C5.01309 14.8225 5.01015 14.8107 5.00958 14.7987C5.00901 14.7866 5.01083 14.7746 5.01487 14.7636C5.01891 14.7526 5.02505 14.743 5.03275 14.7357C5.12906 14.6455 5.22544 14.5517 5.31741 14.4569C5.32558 14.4485 5.33547 14.4431 5.34596 14.4413C5.35645 14.4396 5.36712 14.4415 5.37678 14.4469C8.38394 16.1624 11.6396 16.1624 14.6112 14.4469C14.6208 14.4412 14.6316 14.439 14.6423 14.4406C14.6529 14.4422 14.663 14.4475 14.6713 14.456C14.7633 14.5508 14.8596 14.6455 14.9567 14.7357C14.9644 14.7429 14.9706 14.7524 14.9747 14.7634C14.9788 14.7743 14.9807 14.7864 14.9802 14.7984C14.9797 14.8105 14.9768 14.8222 14.9718 14.8326C14.9669 14.8429 14.9599 14.8516 14.9516 14.8578C14.4936 15.192 14.0139 15.4773 13.5175 15.7105C13.5098 15.7142 13.5028 15.7199 13.497 15.7272C13.4912 15.7344 13.4866 15.7432 13.4837 15.7528C13.4807 15.7624 13.4794 15.7727 13.4799 15.783C13.4803 15.7933 13.4825 15.8034 13.4863 15.8125C13.7612 16.476 14.0747 17.1133 14.4242 17.7194C14.4313 17.7318 14.4414 17.7411 14.4529 17.746C14.4645 17.7509 14.477 17.7512 14.4887 17.7467C16.1413 17.1146 17.6955 16.1346 19.0844 14.8488C19.0911 14.8427 19.0968 14.8348 19.1009 14.8256C19.105 14.8165 19.1075 14.8064 19.1083 14.796C19.4915 9.84355 18.4667 5.54163 16.3916 1.72799ZM6.95285 12.1868C6.04747 12.1868 5.30147 11.1482 5.30147 9.87273C5.30147 8.59726 6.033 7.55862 6.95285 7.55862C7.87988 7.55862 8.61866 8.60628 8.60419 9.87265C8.60419 11.1482 7.87263 12.1868 6.95285 12.1868ZM13.0585 12.1868C12.1531 12.1868 11.4071 11.1482 11.4071 9.87273C11.4071 8.59726 12.1387 7.55862 13.0585 7.55862C13.9856 7.55862 14.7243 8.60628 14.7099 9.87265C14.7099 11.1482 13.9856 12.1868 13.0585 12.1868Z" fill="#30434F"/>
</svg>
