<svg width="24" height="17" viewBox="0 0 24 17" fill="none" xmlns="http://www.w3.org/2000/svg">
<path d="M22.9023 3.16996C22.6406 2.18455 21.8695 1.40846 20.8905 1.14509C19.1159 0.666504 12 0.666504 12 0.666504C12 0.666504 4.88417 0.666504 3.10954 1.14509C2.1305 1.4085 1.35942 2.18455 1.09771 3.16996C0.622208 4.95609 0.622208 8.68267 0.622208 8.68267C0.622208 8.68267 0.622208 12.4093 1.09771 14.1954C1.35942 15.1808 2.1305 15.9245 3.10954 16.1879C4.88417 16.6665 12 16.6665 12 16.6665C12 16.6665 19.1158 16.6665 20.8905 16.1879C21.8695 15.9245 22.6406 15.1808 22.9023 14.1954C23.3778 12.4093 23.3778 8.68267 23.3778 8.68267C23.3778 8.68267 23.3778 4.95609 22.9023 3.16996ZM9.67271 12.0661V5.29921L15.6202 8.68276L9.67271 12.0661Z" fill="#30434F"/>
</svg>
